<?xml version="1.0" encoding="utf-8"?>
<!-- Generator: Adobe Illustrator 18.1.0, SVG Export Plug-In . SVG Version: 6.00 Build 0)  -->
<svg version="1.1" xmlns="http://www.w3.org/2000/svg" xmlns:xlink="http://www.w3.org/1999/xlink" x="0px" y="0px"
	 viewBox="0 0 2039.9 2157" enable-background="new 0 0 2039.9 2157" xml:space="preserve">
<g id="Layer_3" display="none">
	<rect x="-6.1" display="inline" fill="#68819F" width="1929" height="700.6"/>
</g>
<g id="Layer_1">
	<rect y="733.1" fill="#BFE2EA" width="2041.5" height="419.9"/>
	<path fill="#81CFDF" d="M0,1120.1h2041.5v-89.3c0,0-1722.4-191.6-2041.5-231.7"/>
	<path fill="#4A98A5" d="M2041.5,2157H0V992.7c0,0,1722.4-44.2,2041.5-84.2"/>
	<path fill="#346E7B" d="M1040.9,782.8c0,0,67.3,39.9,109.2,96.4c41.8,56.6,41.8,56.6,41.8,56.6l26.3,3c0,0-59.6-106.3-154.6-155.9
		C1040.9,782.8,1040.9,782.8,1040.9,782.8z"/>
	<path fill="#346E7B" d="M677.8,877.7c0,0-97.9,39.8-175.4,100.8c125.5-3.9,125.5-3.9,125.5-3.9s64.5-70.5,133.5-87.4
		C677.8,877.7,677.8,877.7,677.8,877.7z"/>
	<polygon fill="#346E7B" points="815.1,968.5 1386,947.5 1689.1,1153 882.1,1153 	"/>
	<circle fill="#E5E5E5" cx="466.1" cy="343.3" r="114.1"/>
	<path fill="#CECECE" d="M469.2,234.2c-1.7,0-3.3,0-4.9,0.1c51.6,7.7,91.2,53.4,91.2,108.6c0,58.9-45.1,107-101.8,109.6
		c5,0.8,10.2,1.1,15.4,1.1c58.9,0,106.7-49.1,106.7-109.8S528.2,234.2,469.2,234.2z"/>
	<g>
		<path fill="#E6E7E8" d="M902.6,300.7c-2.9,0-5.2-2.3-5.2-5.2c0-2.8,2.3-5.2,5.2-5.2c2.9,0,5.2,2.3,5.2,5.2
			C907.8,298.4,905.5,300.7,902.6,300.7z"/>
	</g>
	<g>
		<path fill="#E6E7E8" d="M656,634.1c-2.9,0-5.2-2.3-5.2-5.2c0-2.8,2.3-5.2,5.2-5.2c2.9,0,5.2,2.3,5.2,5.2
			C661.3,631.8,658.9,634.1,656,634.1z"/>
	</g>
	<g>
		<path fill="#E6E7E8" d="M1292.3,526.8c-3.9,0-7.1-3.2-7.1-7.1c0-3.9,3.2-7.1,7.1-7.1c3.9,0,7.1,3.2,7.1,7.1
			C1299.4,523.5,1296.3,526.8,1292.3,526.8z"/>
	</g>
	<g>
		<path fill="#E6E7E8" d="M1864.6,636.6c-1.7-0.1-3-1.6-2.9-3.4c0.1-1.7,1.6-3,3.4-2.9c1.7,0.1,3.1,1.6,2.9,3.4
			C1867.9,635.4,1866.4,636.7,1864.6,636.6z"/>
	</g>
	<g>
		<path fill="#E6E7E8" d="M1431.1,406.7c-1.3-0.1-2.3-1.2-2.2-2.5c0.1-1.3,1.2-2.3,2.5-2.2c1.3,0.1,2.3,1.2,2.2,2.5
			C1433.6,405.8,1432.4,406.7,1431.1,406.7z"/>
	</g>
	<g>
		<path fill="#E6E7E8" d="M114.9,156.9c-2.6-0.2-4.6-2.5-4.4-5c0.2-2.6,2.4-4.6,5.1-4.4c2.6,0.2,4.6,2.5,4.4,5.1
			C119.7,155.1,117.5,157.1,114.9,156.9z"/>
	</g>
	<g>
		<path fill="#E6E7E8" d="M723.3,523.2c-4.3-0.4-7.6-4.1-7.3-8.3c0.3-4.3,4.1-7.6,8.4-7.3c4.3,0.3,7.6,4,7.3,8.4
			C731.4,520.2,727.6,523.5,723.3,523.2z"/>
	</g>
	<g>
		<path fill="#E6E7E8" d="M1372.4,280.1c-2.9,0-5.2-2.3-5.2-5.2c0-2.8,2.3-5.2,5.2-5.2c2.9,0,5.2,2.3,5.2,5.2
			C1377.6,277.8,1375.3,280.1,1372.4,280.1z"/>
	</g>
	<g>
		<path fill="#E6E7E8" d="M344.5,512.3c-1.3-0.1-2.3-1.2-2.2-2.5c0.1-1.3,1.2-2.3,2.5-2.2c1.3,0.1,2.3,1.2,2.2,2.5
			C347,511.4,345.8,512.4,344.5,512.3z"/>
	</g>
	<g>
		<path fill="#E6E7E8" d="M133.4,505.4c-2.9,0-5.2-2.3-5.2-5.2c0-2.8,2.3-5.2,5.2-5.2c2.9,0,5.2,2.3,5.2,5.2
			C138.7,503.1,136.3,505.4,133.4,505.4z"/>
	</g>
	<g>
		<path fill="#E6E7E8" d="M860.4,524.6c0.9,0.9,0.9,2.4,0,3.4c-0.9,0.9-2.4,0.9-3.3,0c-0.9-0.9-1-2.4,0-3.4
			C858,523.7,859.5,523.7,860.4,524.6z"/>
	</g>
	<g>
		<path fill="#E6E7E8" d="M1016.7,666.6c2.2,1.9,2.5,5.1,0.6,7.4c-1.8,2.2-5.1,2.4-7.3,0.6c-2.2-1.9-2.5-5.1-0.6-7.3
			C1011.3,664.9,1014.5,664.7,1016.7,666.6z"/>
	</g>
	<g>
		<path fill="#E6E7E8" d="M422,589.2c1.4-2.2,4.3-2.9,6.5-1.5c2.2,1.4,2.9,4.3,1.5,6.5c-1.4,2.2-4.3,2.8-6.6,1.5
			C421.3,594.4,420.6,591.4,422,589.2z"/>
	</g>
	<g>
		<path fill="#E6E7E8" d="M0.4,624.7c0.7-1.1,2.2-1.4,3.3-0.7c1.1,0.7,1.4,2.2,0.7,3.3c-0.7,1.1-2.2,1.4-3.3,0.8
			C0,627.2-0.3,625.8,0.4,624.7z"/>
	</g>
	<g>
		<path fill="#E6E7E8" d="M105.7,441.6c1.4-2.6,4.5-3.5,7.1-2.1c2.5,1.3,3.5,4.5,2.1,7c-1.4,2.6-4.5,3.5-7,2.2
			C105.3,447.3,104.4,444.2,105.7,441.6z"/>
	</g>
	<g>
		<path fill="#E6E7E8" d="M1683.9,283.8c-2.9,0-5.2-2.3-5.2-5.2c0-2.8,2.3-5.2,5.2-5.2s5.2,2.3,5.2,5.2
			C1689.1,281.5,1686.8,283.8,1683.9,283.8z"/>
	</g>
	<g>
		<path fill="#E6E7E8" d="M1550.8,403c0.7-1.1,2.2-1.4,3.3-0.7c1.1,0.7,1.4,2.2,0.7,3.3c-0.7,1.1-2.2,1.4-3.3,0.8
			C1550.4,405.6,1550.1,404.1,1550.8,403z"/>
	</g>
	<g>
		<path fill="#E6E7E8" d="M1656.1,220c1.4-2.6,4.5-3.5,7.1-2.1c2.5,1.3,3.5,4.5,2.1,7c-1.4,2.6-4.5,3.5-7,2.2
			C1655.7,225.7,1654.8,222.6,1656.1,220z"/>
	</g>
	<g>
		<path fill="#E6E7E8" d="M1329,361c2.9,0,5.2,2.3,5.2,5.2c0,2.8-2.3,5.2-5.2,5.2s-5.2-2.3-5.2-5.2
			C1323.8,363.3,1326.1,361,1329,361z"/>
	</g>
	<g>
		<path fill="#E6E7E8" d="M1575.6,27.5c2.9,0,5.2,2.3,5.2,5.2c0,2.8-2.3,5.2-5.2,5.2c-2.9,0-5.2-2.3-5.2-5.2
			C1570.4,29.8,1572.7,27.5,1575.6,27.5z"/>
	</g>
	<g>
		<path fill="#E6E7E8" d="M939.3,134.9c3.9,0,7.1,3.2,7.1,7.1c0,3.9-3.2,7.1-7.1,7.1c-3.9,0-7.1-3.2-7.1-7.1
			C932.2,138.1,935.4,134.9,939.3,134.9z"/>
	</g>
	<g>
		<path fill="#E6E7E8" d="M367,25.1c1.7,0.1,3,1.6,2.9,3.4c-0.1,1.7-1.6,3-3.4,2.9c-1.7-0.1-3.1-1.6-2.9-3.4
			C363.8,26.3,365.3,24.9,367,25.1z"/>
	</g>
	<g>
		<path fill="#E6E7E8" d="M800.5,255c1.3,0.1,2.3,1.2,2.2,2.5c-0.1,1.3-1.2,2.3-2.5,2.2c-1.3-0.1-2.3-1.2-2.2-2.5
			C798.1,255.9,799.2,254.9,800.5,255z"/>
	</g>
	<g>
		<path fill="#E6E7E8" d="M1509.4,462c-0.2,2.6-2.5,4.6-5,4.4c-2.6-0.2-4.6-2.4-4.4-5.1c0.2-2.6,2.5-4.6,5.1-4.4
			C1507.6,457.2,1509.6,459.4,1509.4,462z"/>
	</g>
	<g>
		<path fill="#E6E7E8" d="M1508.3,138.5c4.3,0.4,7.6,4.1,7.3,8.3c-0.3,4.3-4.1,7.6-8.4,7.3c-4.3-0.3-7.6-4-7.3-8.4
			C1500.3,141.4,1504,138.2,1508.3,138.5z"/>
	</g>
	<g>
		<path fill="#E6E7E8" d="M859.2,381.6c2.9,0,5.2,2.3,5.2,5.2c0,2.8-2.3,5.2-5.2,5.2c-2.9,0-5.2-2.3-5.2-5.2
			C854,383.9,856.3,381.6,859.2,381.6z"/>
	</g>
	<g>
		<path fill="#E6E7E8" d="M1887.2,149.4c1.3,0.1,2.3,1.2,2.2,2.5c-0.1,1.3-1.2,2.3-2.5,2.2c-1.3-0.1-2.3-1.2-2.2-2.5
			C1884.7,150.3,1885.9,149.3,1887.2,149.4z"/>
	</g>
	<g>
		<path fill="#E6E7E8" d="M1858,443.4c0,2.9-2.3,5.2-5.2,5.2c-2.8,0-5.2-2.3-5.2-5.2c0-2.9,2.3-5.2,5.2-5.2
			C1855.6,438.2,1858,440.5,1858,443.4z"/>
	</g>
	<g>
		<path fill="#E6E7E8" d="M1371.3,137.1c-0.9-0.9-0.9-2.4,0-3.4c0.9-0.9,2.4-0.9,3.3,0c0.9,0.9,1,2.4,0,3.4
			C1373.7,138,1372.2,138,1371.3,137.1z"/>
	</g>
	<g>
		<path fill="#E6E7E8" d="M1809.6,72.4c-1.4,2.2-4.3,2.9-6.5,1.5c-2.2-1.4-2.9-4.3-1.5-6.5c1.4-2.2,4.3-2.8,6.6-1.5
			C1810.3,67.3,1811,70.2,1809.6,72.4z"/>
	</g>
	<g>
		<path fill="#E6E7E8" d="M1008.2,274.8c2.3-1.8,5.5-1.3,7.3,1c1.7,2.3,1.3,5.5-1,7.3c-2.3,1.8-5.6,1.3-7.3-1
			C1005.4,279.8,1005.9,276.5,1008.2,274.8z"/>
	</g>
	<g>
		<path fill="#E6E7E8" d="M1195,329.4c0.5,2.9-1.5,5.5-4.3,6c-2.8,0.5-5.5-1.5-5.9-4.3c-0.5-2.9,1.5-5.5,4.3-6
			C1191.9,324.7,1194.6,326.6,1195,329.4z"/>
	</g>
	<g>
		<path fill="#E6E7E8" d="M1252.4,193.1c1.3,0.1,2.3,1.2,2.2,2.5c-0.1,1.3-1.2,2.3-2.5,2.2c-1.3-0.1-2.3-1.2-2.2-2.5
			C1249.9,194,1251.1,193,1252.4,193.1z"/>
	</g>
	<g>
		<path fill="#E6E7E8" d="M1223.2,487.2c0,2.9-2.3,5.2-5.2,5.2c-2.8,0-5.2-2.3-5.2-5.2c0-2.9,2.3-5.2,5.2-5.2
			C1220.9,482,1223.2,484.3,1223.2,487.2z"/>
	</g>
	<g>
		<path fill="#E6E7E8" d="M1174.9,116.2c-1.4,2.2-4.3,2.9-6.5,1.5c-2.2-1.4-2.9-4.3-1.5-6.5c1.4-2.2,4.3-2.8,6.6-1.5
			C1175.6,111.1,1176.2,114,1174.9,116.2z"/>
	</g>
	<g>
		<path fill="#E6E7E8" d="M1977.2,576.5c-1.1-0.7-1.4-2.2-0.7-3.3c0.7-1.1,2.2-1.4,3.3-0.7c1.1,0.7,1.4,2.2,0.8,3.3
			C1979.8,576.9,1978.3,577.2,1977.2,576.5z"/>
	</g>
	<g>
		<path fill="#E6E7E8" d="M1794.2,471.2c-2.6-1.4-3.5-4.5-2.1-7.1c1.3-2.5,4.5-3.5,7-2.1c2.6,1.4,3.5,4.5,2.2,7
			C1799.9,471.6,1796.7,472.5,1794.2,471.2z"/>
	</g>
	<g>
		<path fill="#E6E7E8" d="M143.4,292.3c-1.7-0.1-3-1.6-2.9-3.4c0.1-1.7,1.6-3,3.4-2.9c1.7,0.1,3.1,1.6,2.9,3.4
			C146.6,291.1,145.1,292.4,143.4,292.3z"/>
	</g>
	<g>
		<path fill="#E6E7E8" d="M136.7,99.1c0,2.9-2.3,5.2-5.2,5.2c-2.8,0-5.2-2.3-5.2-5.2c0-2.9,2.3-5.2,5.2-5.2
			C134.4,93.9,136.7,96.2,136.7,99.1z"/>
	</g>
	<g>
		<path fill="#E6E7E8" d="M256,232.2c-1.1-0.7-1.4-2.2-0.7-3.3c0.7-1.1,2.2-1.4,3.3-0.7c1.1,0.7,1.4,2.2,0.8,3.3
			C258.5,232.6,257.1,232.9,256,232.2z"/>
	</g>
	<g>
		<path fill="#E6E7E8" d="M72.9,126.9c-2.6-1.4-3.5-4.5-2.1-7.1c1.3-2.5,4.5-3.5,7-2.1c2.6,1.4,3.5,4.5,2.2,7
			C78.6,127.3,75.5,128.2,72.9,126.9z"/>
	</g>
</g>
<g id="Layer_2">
	<path fill="#346E7B" d="M1063.6,782.8c0,0-21.5-11.6-31.8-15.9c-10.3-4.3-17.6-8.1-17.6-8.1s-15-10.8-5.4-25.5
		c-11.1,0-11.1,0-11.1,0s-8.2,10,2.3,24.5s41,25.2,41,25.2L1063.6,782.8z"/>
	<polygon fill="#346E7B" points="1042.8,748.5 1042.8,771 1066.7,766.1 1066.7,743.1 	"/>
	<polygon fill="#3E7F89" points="1023.9,739 1042.8,748.5 1042.8,771 1023.9,759.8 	"/>
	<path fill="#346E7B" d="M1182.3,890.7c0,0,21.7-20.8,24-38.3c2.3-17.4-22.8-33.1-22.8-33.1s-23.6-19.9-45.6-18.2
		s-37.3,6.2-37.3,6.2l7.8,6.7c0,0,21.6-7.4,29.1-6.7c0,0,48.7,6,46.8,39.9c-1.3,23.1-19.7,23.4-19.7,23.4L1182.3,890.7z"/>
	<polygon fill="#5BAADE" points="1048.8,735.5 1023.9,739 1042.8,748.5 1066.7,743.1 	"/>
	<polygon fill="#346E7B" points="981.9,768.9 981.9,791.4 1005.8,786.5 1005.8,763.5 	"/>
	<polygon fill="#3E7F89" points="962.9,759.4 981.9,768.9 981.9,791.4 962.9,780.2 	"/>
	<polygon fill="#5BAADE" points="987.8,755.9 962.9,759.4 981.9,768.9 1005.8,763.5 	"/>
	<polygon fill="#346E7B" points="1003.8,783.1 1003.8,805.7 1027.7,800.7 1027.7,777.7 	"/>
	<polygon fill="#3E7F89" points="984.9,773.7 1003.8,783.1 1003.8,805.7 984.9,794.4 	"/>
	<polygon fill="#5BAADE" points="1009.8,770.2 984.9,773.7 1003.8,783.1 1027.7,777.7 	"/>
	<polygon fill="#346E7B" points="1039.2,793 1039.2,820.6 1063.1,814.5 1063.1,786.4 	"/>
	<polygon fill="#3E7F89" points="1020.3,781.5 1039.2,793 1039.2,820.6 1020.3,806.8 	"/>
	<polygon fill="#5BAADE" points="1045.2,777.2 1020.3,781.5 1039.2,793 1063.1,786.4 	"/>
	<polygon fill="#346E7B" points="1200.6,809.4 1200.6,836.9 1224.5,830.9 1224.5,802.8 	"/>
	<polygon fill="#3E7F89" points="1181.7,797.8 1200.6,809.4 1200.6,836.9 1181.7,823.1 	"/>
	<polygon fill="#58A2CC" points="1206.6,793.6 1181.7,797.8 1200.6,809.4 1224.5,802.8 	"/>
	<polygon fill="#3E7F89" points="1051.2,754.5 1108.5,775.7 1108.5,799.2 1051.2,773 	"/>
	<polygon fill="#5BAADE" points="1077.8,748.2 1051.2,754.5 1108.5,775.7 1128.5,765.9 	"/>
	<polygon fill="#346E7B" points="1128.8,789.2 1108.5,799.2 1108.5,775.7 1128.5,765.9 	"/>
	<polygon fill="#346E7B" points="960.5,772.6 913.6,782.5 913.6,785.1 960.5,773.7 	"/>
	<polygon fill="#346E7B" points="933.6,802.8 913.6,785.1 913.6,782.5 933.6,800.3 	"/>
	<polygon fill="#346E7B" points="981.9,789 933.6,802.8 933.6,800.3 981.9,787.4 	"/>
	<polygon fill="#346E7B" points="913.6,785.1 913.6,789.7 915.3,789.1 915.3,785.5 	"/>
	<polygon fill="#346E7B" points="933.6,802.8 933.6,807 935.6,806.3 935.6,801.4 	"/>
	<polygon fill="#346E7B" points="959.1,774 959.1,778.5 960.5,778.1 960.5,773.7 	"/>
	<polygon fill="#346E7B" points="980.6,789.3 980.6,793.7 982.4,793.2 981.9,789 	"/>
	<polygon fill="#346E7B" points="999.8,815.1 999.8,832 1004.9,830.2 1004.9,813.4 	"/>
	<polygon fill="#3E7F89" points="999.8,815.1 994.4,810.7 994.4,826.1 999.8,832 	"/>
	<polygon fill="#5BAADE" points="1004.9,813.4 999.8,809.1 994.4,810.7 999.8,815.1 	"/>
	<polygon fill="#346E7B" points="1148.2,818.4 1148.2,827 1151.8,826.1 1151.8,817.6 	"/>
	<polygon fill="#3E7F89" points="1148.2,818.4 1144.4,816.2 1144.4,824 1148.2,827 	"/>
	<polygon fill="#5BAADE" points="1151.8,817.6 1148.2,815.4 1144.4,816.2 1148.2,818.4 	"/>
	<polygon fill="#346E7B" points="1161.7,827.4 1161.7,836 1165.2,835 1165.2,826.5 	"/>
	<polygon fill="#3E7F89" points="1161.7,827.4 1157.9,825.2 1157.9,833 1161.7,836 	"/>
	<polygon fill="#5BAADE" points="1165.2,826.5 1161.7,824.3 1157.9,825.2 1161.7,827.4 	"/>
	<polygon fill="#3E7F89" points="1130.6,796.6 1130.6,823.1 1134,826.1 1134,799.2 	"/>
	<polygon fill="#3E7F89" points="1168.1,818.7 1168.1,843.6 1172.2,846.7 1172.2,820.5 	"/>
	<polygon fill="#3E7F89" points="1123.2,796.1 1179.3,826.8 1179.3,820.5 1123.2,791.3 	"/>
	<polygon fill="#3E7F89" points="1220.6,811.4 1179.3,820.5 1179.3,826.8 1220.6,818.7 	"/>
	<polygon fill="#5BAADE" points="1123.2,791.3 1163.4,783.6 1220.6,811.4 1179.3,820.5 	"/>
	<path fill="#346E7B" d="M902.6,2157c0,0,142.7-612-20.5-1004c807,0,807,0,807,0S2225,1469,2365,2157
		C1391.5,2157.1,902.6,2157,902.6,2157z"/>
</g>
</svg>
