<?xml version="1.0" encoding="utf-8"?>
<!-- Generator: Adobe Illustrator 18.1.0, SVG Export Plug-In . SVG Version: 6.00 Build 0)  -->
<svg version="1.1" xmlns="http://www.w3.org/2000/svg" xmlns:xlink="http://www.w3.org/1999/xlink" x="0px" y="0px"
	 viewBox="0 0 1920 1080" enable-background="new 0 0 1920 1080" xml:space="preserve">
<g id="Layer_3" display="none">
	<rect x="-6.1" display="inline" fill="#68819F" width="1929" height="700.6"/>
</g>
<g id="Layer_1">
	<rect y="691" fill="#BFE2EA" width="1920" height="394.9"/>
	<path fill="#81CFDF" d="M0,1054.9h1920v-84c0,0-1619.9-180.2-1920-217.9"/>
	<path fill="#4A98A5" d="M1920,1085.9H0V935.1c0,0,1619.9-41.6,1920-79.2"/>
	<path fill="#346E7B" d="M979,737.7c0,0,63.3,37.5,102.7,90.7c39.3,53.2,39.3,53.2,39.3,53.2l24.7,2.8c0,0-56.1-100-145.4-146.6
		C979,737.7,979,737.7,979,737.7z"/>
	<path fill="#346E7B" d="M637.4,826.9c0,0-92.1,37.5-165,94.8c118-3.7,118-3.7,118-3.7s60.7-66.3,125.6-82.2
		C637.4,826.9,637.4,826.9,637.4,826.9z"/>
	<polygon fill="#346E7B" points="766.6,912.4 1303.5,892.6 1588.6,1085.9 829.6,1085.9 	"/>
	<circle fill="#E5E5E5" cx="438.3" cy="324.3" r="107.3"/>
	<path fill="#CECECE" d="M441.3,221.7c-1.6,0-3.1,0-4.6,0.1c48.5,7.2,85.8,50.2,85.8,102.1c0,55.4-42.4,100.6-95.7,103.1
		c4.7,0.7,9.6,1.1,14.5,1.1c55.4,0,100.3-46.2,100.3-103.2S496.7,221.7,441.3,221.7z"/>
	<g>
		<path fill="#E6E7E8" d="M848.9,284.3c-2.7,0-4.9-2.2-4.9-4.9c0-2.7,2.2-4.9,4.9-4.9s4.9,2.2,4.9,4.9
			C853.8,282.1,851.6,284.3,848.9,284.3z"/>
	</g>
	<g>
		<path fill="#E6E7E8" d="M617,597.9c-2.7,0-4.9-2.2-4.9-4.9c0-2.7,2.2-4.9,4.9-4.9s4.9,2.2,4.9,4.9
			C621.9,595.7,619.7,597.9,617,597.9z"/>
	</g>
	<g>
		<path fill="#E6E7E8" d="M1215.4,496.9c-3.7,0-6.7-3-6.7-6.7c0-3.7,3-6.7,6.7-6.7c3.7,0,6.7,3,6.7,6.7
			C1222.1,493.9,1219.1,496.9,1215.4,496.9z"/>
	</g>
	<g>
		<path fill="#E6E7E8" d="M1753.7,600.2c-1.6-0.1-2.9-1.5-2.7-3.2c0.1-1.6,1.5-2.9,3.2-2.7c1.6,0.1,2.9,1.5,2.7,3.2
			C1756.7,599.1,1755.3,600.3,1753.7,600.2z"/>
	</g>
	<g>
		<path fill="#E6E7E8" d="M1346,384c-1.2-0.1-2.1-1.2-2.1-2.4c0.1-1.2,1.2-2.1,2.4-2.1c1.2,0.1,2.2,1.2,2.1,2.4
			C1348.3,383.1,1347.2,384,1346,384z"/>
	</g>
	<g>
		<path fill="#E6E7E8" d="M108,149c-2.4-0.2-4.3-2.3-4.1-4.7c0.2-2.5,2.3-4.3,4.8-4.2c2.5,0.2,4.3,2.3,4.1,4.8
			C112.6,147.4,110.5,149.2,108,149z"/>
	</g>
	<g>
		<path fill="#E6E7E8" d="M680.3,493.5c-4.1-0.3-7.1-3.8-6.8-7.8c0.3-4.1,3.8-7.1,7.9-6.9c4.1,0.3,7.1,3.8,6.8,7.9
			C687.8,490.8,684.3,493.8,680.3,493.5z"/>
	</g>
	<g>
		<path fill="#E6E7E8" d="M1290.7,264.9c-2.7,0-4.9-2.2-4.9-4.9c0-2.7,2.2-4.9,4.9-4.9s4.9,2.2,4.9,4.9
			C1295.7,262.7,1293.5,264.9,1290.7,264.9z"/>
	</g>
	<g>
		<path fill="#E6E7E8" d="M324,483.3c-1.2-0.1-2.1-1.2-2.1-2.4c0.1-1.2,1.2-2.1,2.4-2.1c1.2,0.1,2.2,1.2,2.1,2.4
			C326.3,482.5,325.2,483.4,324,483.3z"/>
	</g>
	<g>
		<path fill="#E6E7E8" d="M125.5,476.8c-2.7,0-4.9-2.2-4.9-4.9c0-2.7,2.2-4.9,4.9-4.9c2.7,0,4.9,2.2,4.9,4.9
			C130.4,474.7,128.2,476.8,125.5,476.8z"/>
	</g>
	<g>
		<path fill="#E6E7E8" d="M809.2,494.9c0.9,0.9,0.9,2.3,0,3.2c-0.9,0.9-2.3,0.9-3.1,0c-0.9-0.9-0.9-2.3,0-3.2
			C806.9,494,808.3,494,809.2,494.9z"/>
	</g>
	<g>
		<path fill="#E6E7E8" d="M956.2,628.4c2.1,1.8,2.3,4.8,0.5,6.9c-1.7,2-4.8,2.3-6.9,0.5c-2.1-1.8-2.3-4.8-0.6-6.9
			C951.1,626.9,954.2,626.6,956.2,628.4z"/>
	</g>
	<g>
		<path fill="#E6E7E8" d="M396.9,555.7c1.3-2.1,4.1-2.7,6.1-1.4c2.1,1.3,2.7,4.1,1.4,6.2c-1.3,2.1-4.1,2.7-6.2,1.4
			C396.2,560.5,395.6,557.7,396.9,555.7z"/>
	</g>
	<g>
		<path fill="#E6E7E8" d="M0.3,589c0.7-1,2-1.4,3.1-0.7c1,0.6,1.4,2,0.7,3.1c-0.7,1-2,1.4-3.1,0.7C0,591.4-0.3,590,0.3,589z"/>
	</g>
	<g>
		<path fill="#E6E7E8" d="M99.4,416.9c1.3-2.4,4.2-3.3,6.7-2c2.4,1.3,3.3,4.2,2,6.6c-1.3,2.4-4.2,3.3-6.6,2
			C99,422.2,98.1,419.3,99.4,416.9z"/>
	</g>
	<g>
		<path fill="#E6E7E8" d="M1583.7,268.4c-2.7,0-4.9-2.2-4.9-4.9c0-2.7,2.2-4.9,4.9-4.9s4.9,2.2,4.9,4.9
			C1588.6,266.2,1586.4,268.4,1583.7,268.4z"/>
	</g>
	<g>
		<path fill="#E6E7E8" d="M1458.5,380.5c0.7-1,2-1.4,3.1-0.7c1,0.6,1.4,2,0.7,3.1c-0.7,1-2,1.4-3.1,0.7
			C1458.1,383,1457.9,381.6,1458.5,380.5z"/>
	</g>
	<g>
		<path fill="#E6E7E8" d="M1557.6,208.4c1.3-2.4,4.2-3.3,6.7-2c2.4,1.3,3.3,4.2,2,6.6c-1.3,2.4-4.2,3.3-6.6,2
			C1557.2,213.8,1556.3,210.8,1557.6,208.4z"/>
	</g>
	<g>
		<path fill="#E6E7E8" d="M1249.9,341c2.7,0,4.9,2.2,4.9,4.9c0,2.7-2.2,4.9-4.9,4.9s-4.9-2.2-4.9-4.9
			C1245,343.2,1247.2,341,1249.9,341z"/>
	</g>
	<g>
		<path fill="#E6E7E8" d="M1481.8,27.4c2.7,0,4.9,2.2,4.9,4.9c0,2.7-2.2,4.9-4.9,4.9s-4.9-2.2-4.9-4.9
			C1476.9,29.6,1479.1,27.4,1481.8,27.4z"/>
	</g>
	<g>
		<path fill="#E6E7E8" d="M883.4,128.4c3.7,0,6.7,3,6.7,6.7c0,3.7-3,6.7-6.7,6.7c-3.7,0-6.7-3-6.7-6.7
			C876.7,131.4,879.7,128.4,883.4,128.4z"/>
	</g>
	<g>
		<path fill="#E6E7E8" d="M345.2,25.1c1.6,0.1,2.9,1.5,2.7,3.2c-0.1,1.6-1.5,2.9-3.2,2.7c-1.6-0.1-2.9-1.5-2.7-3.2
			C342.1,26.2,343.5,24.9,345.2,25.1z"/>
	</g>
	<g>
		<path fill="#E6E7E8" d="M752.9,241.3c1.2,0.1,2.1,1.2,2.1,2.4c-0.1,1.2-1.2,2.1-2.4,2.1c-1.2-0.1-2.2-1.2-2.1-2.4
			C750.6,242.2,751.7,241.3,752.9,241.3z"/>
	</g>
	<g>
		<path fill="#E6E7E8" d="M1419.6,436c-0.2,2.4-2.3,4.3-4.7,4.1c-2.5-0.2-4.3-2.3-4.2-4.8c0.2-2.5,2.3-4.3,4.8-4.1
			C1417.9,431.5,1419.7,433.6,1419.6,436z"/>
	</g>
	<g>
		<path fill="#E6E7E8" d="M1418.6,131.7c4.1,0.3,7.1,3.8,6.8,7.8c-0.3,4.1-3.8,7.1-7.9,6.9c-4.1-0.3-7.1-3.8-6.8-7.9
			C1411,134.5,1414.5,131.4,1418.6,131.7z"/>
	</g>
	<g>
		<path fill="#E6E7E8" d="M808.1,360.4c2.7,0,4.9,2.2,4.9,4.9c0,2.7-2.2,4.9-4.9,4.9s-4.9-2.2-4.9-4.9
			C803.2,362.6,805.4,360.4,808.1,360.4z"/>
	</g>
	<g>
		<path fill="#E6E7E8" d="M1774.8,142c1.2,0.1,2.1,1.2,2.1,2.4c-0.1,1.2-1.2,2.1-2.4,2.1c-1.2-0.1-2.2-1.2-2.1-2.4
			C1772.5,142.8,1773.6,141.9,1774.8,142z"/>
	</g>
	<g>
		<path fill="#E6E7E8" d="M1747.4,418.5c0,2.7-2.2,4.9-4.9,4.9c-2.7,0-4.9-2.2-4.9-4.9c0-2.7,2.2-4.9,4.9-4.9
			C1745.2,413.6,1747.4,415.8,1747.4,418.5z"/>
	</g>
	<g>
		<path fill="#E6E7E8" d="M1289.7,130.4c-0.9-0.9-0.9-2.3,0-3.2c0.9-0.9,2.3-0.9,3.1,0c0.9,0.9,0.9,2.3,0,3.2
			C1292,131.3,1290.5,131.3,1289.7,130.4z"/>
	</g>
	<g>
		<path fill="#E6E7E8" d="M1701.9,69.6c-1.3,2.1-4.1,2.7-6.1,1.4c-2.1-1.3-2.7-4.1-1.4-6.2c1.3-2.1,4.1-2.7,6.2-1.4
			C1702.6,64.8,1703.2,67.5,1701.9,69.6z"/>
	</g>
	<g>
		<path fill="#E6E7E8" d="M948.2,259.9c2.2-1.6,5.2-1.2,6.9,1c1.6,2.1,1.2,5.2-1,6.8c-2.2,1.6-5.2,1.2-6.8-0.9
			C945.6,264.6,946,261.6,948.2,259.9z"/>
	</g>
	<g>
		<path fill="#E6E7E8" d="M1123.9,311.3c0.4,2.7-1.4,5.2-4.1,5.6c-2.6,0.4-5.1-1.4-5.6-4.1c-0.4-2.7,1.4-5.2,4-5.6
			C1121,306.8,1123.5,308.6,1123.9,311.3z"/>
	</g>
	<g>
		<path fill="#E6E7E8" d="M1177.8,183.1c1.2,0.1,2.1,1.2,2.1,2.4c-0.1,1.2-1.2,2.1-2.4,2.1c-1.2-0.1-2.2-1.2-2.1-2.4
			C1175.5,184,1176.6,183,1177.8,183.1z"/>
	</g>
	<g>
		<path fill="#E6E7E8" d="M1150.4,459.7c0,2.7-2.2,4.9-4.9,4.9c-2.7,0-4.9-2.2-4.9-4.9c0-2.7,2.2-4.9,4.9-4.9
			C1148.2,454.8,1150.4,457,1150.4,459.7z"/>
	</g>
	<g>
		<path fill="#E6E7E8" d="M1104.9,110.7c-1.3,2.1-4.1,2.7-6.1,1.4c-2.1-1.3-2.7-4.1-1.4-6.2c1.3-2.1,4.1-2.7,6.2-1.4
			C1105.6,105.9,1106.2,108.7,1104.9,110.7z"/>
	</g>
	<g>
		<path fill="#E6E7E8" d="M1859.5,543.7c-1-0.7-1.4-2-0.7-3.1c0.6-1,2-1.4,3.1-0.7c1,0.7,1.4,2,0.7,3.1
			C1862,544.1,1860.6,544.3,1859.5,543.7z"/>
	</g>
	<g>
		<path fill="#E6E7E8" d="M1687.4,444.6c-2.4-1.3-3.3-4.2-2-6.7c1.3-2.4,4.2-3.3,6.6-2c2.4,1.3,3.3,4.2,2,6.6
			C1692.8,445,1689.8,445.9,1687.4,444.6z"/>
	</g>
	<g>
		<path fill="#E6E7E8" d="M134.9,276.4c-1.6-0.1-2.9-1.5-2.7-3.2c0.1-1.6,1.5-2.9,3.2-2.7c1.6,0.1,2.9,1.5,2.7,3.2
			C137.9,275.3,136.5,276.5,134.9,276.4z"/>
	</g>
	<g>
		<path fill="#E6E7E8" d="M128.6,94.7c0,2.7-2.2,4.9-4.9,4.9c-2.7,0-4.9-2.2-4.9-4.9c0-2.7,2.2-4.9,4.9-4.9
			C126.4,89.8,128.6,92,128.6,94.7z"/>
	</g>
	<g>
		<path fill="#E6E7E8" d="M240.7,219.9c-1-0.7-1.4-2-0.7-3.1c0.6-1,2-1.4,3.1-0.7c1,0.7,1.4,2,0.7,3.1
			C243.1,220.2,241.8,220.5,240.7,219.9z"/>
	</g>
	<g>
		<path fill="#E6E7E8" d="M68.6,120.8c-2.4-1.3-3.3-4.2-2-6.7c1.3-2.4,4.2-3.3,6.6-2c2.4,1.3,3.3,4.2,2,6.6
			C74,121.2,71,122.1,68.6,120.8z"/>
	</g>
</g>
<g id="Layer_2">
	<path fill="#346E7B" d="M1000.3,737.7c0,0-20.3-10.9-29.9-15c-9.7-4.1-16.5-7.6-16.5-7.6s-14.1-10.1-5-24c-10.4,0-10.4,0-10.4,0
		s-7.7,9.4,2.2,23.1c9.8,13.7,38.6,23.7,38.6,23.7L1000.3,737.7z"/>
	<polygon fill="#346E7B" points="980.8,705.4 980.8,726.6 1003.3,722 1003.3,700.3 	"/>
	<polygon fill="#3E7F89" points="963,696.5 980.8,705.4 980.8,726.6 963,716 	"/>
	<path fill="#346E7B" d="M1112,839.2c0,0,20.4-19.6,22.6-36s-21.5-31.1-21.5-31.1s-22.2-18.7-42.9-17.1c-20.6,1.6-35.1,5.8-35.1,5.8
		l7.3,6.3c0,0,20.3-7,27.4-6.3c0,0,45.8,5.6,44,37.5c-1.2,21.7-18.5,22-18.5,22L1112,839.2z"/>
	<polygon fill="#5BAADE" points="986.4,693.2 963,696.5 980.8,705.4 1003.3,700.3 	"/>
	<polygon fill="#346E7B" points="923.4,724.6 923.4,745.8 945.9,741.2 945.9,719.5 	"/>
	<polygon fill="#3E7F89" points="905.6,715.7 923.4,724.6 923.4,745.8 905.6,735.2 	"/>
	<polygon fill="#5BAADE" points="929.1,712.4 905.6,715.7 923.4,724.6 945.9,719.5 	"/>
	<polygon fill="#346E7B" points="944.1,738 944.1,759.2 966.6,754.6 966.6,732.9 	"/>
	<polygon fill="#3E7F89" points="926.3,729.1 944.1,738 944.1,759.2 926.3,748.6 	"/>
	<polygon fill="#5BAADE" points="949.7,725.8 926.3,729.1 944.1,738 966.6,732.9 	"/>
	<polygon fill="#346E7B" points="977.4,747.3 977.4,773.2 999.9,767.5 999.9,741.1 	"/>
	<polygon fill="#3E7F89" points="959.6,736.5 977.4,747.3 977.4,773.2 959.6,760.3 	"/>
	<polygon fill="#5BAADE" points="983,732.5 959.6,736.5 977.4,747.3 999.9,741.1 	"/>
	<polygon fill="#346E7B" points="1129.2,762.7 1129.2,788.6 1151.6,782.9 1151.6,756.5 	"/>
	<polygon fill="#3E7F89" points="1111.4,751.8 1129.2,762.7 1129.2,788.6 1111.4,775.6 	"/>
	<polygon fill="#58A2CC" points="1134.8,747.8 1111.4,751.8 1129.2,762.7 1151.6,756.5 	"/>
	<polygon fill="#3E7F89" points="988.6,711.1 1042.6,731 1042.6,753.1 988.6,728.5 	"/>
	<polygon fill="#5BAADE" points="1013.6,705.2 988.6,711.1 1042.6,731 1061.3,721.8 	"/>
	<polygon fill="#346E7B" points="1061.6,743.8 1042.6,753.1 1042.6,731 1061.3,721.8 	"/>
	<polygon fill="#346E7B" points="903.3,728.1 859.2,737.4 859.2,739.9 903.3,729.1 	"/>
	<polygon fill="#346E7B" points="878,756.5 859.2,739.9 859.2,737.4 878,754.1 	"/>
	<polygon fill="#346E7B" points="923.4,743.5 878,756.5 878,754.1 923.4,742.1 	"/>
	<polygon fill="#346E7B" points="859.2,739.9 859.2,744.2 860.8,743.6 860.8,740.2 	"/>
	<polygon fill="#346E7B" points="878,756.5 878,760.4 879.9,759.8 879.9,755.2 	"/>
	<polygon fill="#346E7B" points="902.1,729.4 902.1,733.6 903.3,733.3 903.3,729.1 	"/>
	<polygon fill="#346E7B" points="922.3,743.8 922.3,747.9 923.9,747.5 923.4,743.5 	"/>
	<polygon fill="#346E7B" points="940.3,768.1 940.3,784 945.1,782.3 945.1,766.5 	"/>
	<polygon fill="#3E7F89" points="940.3,768.1 935.2,764 935.2,778.4 940.3,784 	"/>
	<polygon fill="#5BAADE" points="945.1,766.5 940.3,762.4 935.2,764 940.3,768.1 	"/>
	<polygon fill="#346E7B" points="1079.9,771.2 1079.9,779.3 1083.3,778.4 1083.3,770.4 	"/>
	<polygon fill="#3E7F89" points="1079.9,771.2 1076.3,769.1 1076.3,776.5 1079.9,779.3 	"/>
	<polygon fill="#5BAADE" points="1083.3,770.4 1079.9,768.3 1076.3,769.1 1079.9,771.2 	"/>
	<polygon fill="#346E7B" points="1092.5,779.6 1092.5,787.7 1095.9,786.8 1095.9,778.8 	"/>
	<polygon fill="#3E7F89" points="1092.5,779.6 1089,777.5 1089,784.9 1092.5,787.7 	"/>
	<polygon fill="#5BAADE" points="1095.9,778.8 1092.5,776.8 1089,777.5 1092.5,779.6 	"/>
	<polygon fill="#3E7F89" points="1063.3,750.6 1063.3,775.6 1066.5,778.5 1066.5,753.1 	"/>
	<polygon fill="#3E7F89" points="1098.6,771.5 1098.6,794.9 1102.4,797.8 1102.4,773.1 	"/>
	<polygon fill="#3E7F89" points="1056.3,750.2 1109.1,779.1 1109.1,773.1 1056.3,745.7 	"/>
	<polygon fill="#3E7F89" points="1147.9,764.6 1109.1,773.1 1109.1,779.1 1147.9,771.5 	"/>
	<polygon fill="#5BAADE" points="1056.3,745.7 1094.2,738.4 1147.9,764.6 1109.1,773.1 	"/>
</g>
</svg>
