<?xml version="1.0" encoding="utf-8"?>
<!-- Generator: Adobe Illustrator 18.0.0, SVG Export Plug-In . SVG Version: 6.00 Build 0)  -->
<!DOCTYPE svg PUBLIC "-//W3C//DTD SVG 1.1//EN" "http://www.w3.org/Graphics/SVG/1.1/DTD/svg11.dtd">
<svg version="1.1" id="Layer_1" xmlns="http://www.w3.org/2000/svg" xmlns:xlink="http://www.w3.org/1999/xlink" x="0px" y="0px"
	 viewBox="0 0 25 25" enable-background="new 0 0 25 25" xml:space="preserve">
<path fill="#FFFFFF" d="M22,6.2H3c-1.5,0-2.8-1.2-2.8-2.8V3.1c0-1.5,1.2-2.8,2.8-2.8H22c1.5,0,2.8,1.2,2.8,2.8v0.3
	C24.8,4.9,23.6,6.2,22,6.2z"/>
<path fill="#FFFFFF" d="M22,15.5H3c-1.5,0-2.8-1.2-2.8-2.8v-0.3C0.2,11,1.5,9.7,3,9.7H22c1.5,0,2.8,1.2,2.8,2.8v0.3
	C24.8,14.3,23.6,15.5,22,15.5z"/>
<path fill="#FFFFFF" d="M22,24.6H3c-1.5,0-2.8-1.2-2.8-2.8v-0.3c0-1.5,1.2-2.8,2.8-2.8H22c1.5,0,2.8,1.2,2.8,2.8v0.3
	C24.8,23.3,23.6,24.6,22,24.6z"/>
</svg>
