<?xml version="1.0" encoding="utf-8"?>
<!-- Generator: Adobe Illustrator 18.0.0, SVG Export Plug-In . SVG Version: 6.00 Build 0)  -->
<!DOCTYPE svg PUBLIC "-//W3C//DTD SVG 1.1//EN" "http://www.w3.org/Graphics/SVG/1.1/DTD/svg11.dtd">
<svg version="1.1" id="Icons" xmlns="http://www.w3.org/2000/svg" xmlns:xlink="http://www.w3.org/1999/xlink" x="0px" y="0px"
	 viewBox="0 0 100 100" enable-background="new 0 0 100 100" xml:space="preserve">
<path id="Dribbble" fill="#34495E" d="M50,5C25.1,5,5,25.1,5,50c0,24.8,20.1,45,45,45s45-20.1,45-45C95,25.1,74.9,5,50,5z
	 M77.6,28.3c4.4,5.6,7.1,12.5,7.5,20c-5.1-1.1-9.9-1.6-14.4-1.6v0h0c-3.6,0-7,0.3-10.2,0.9c-0.8-1.9-1.6-3.7-2.3-5.5
	C65.2,39.1,72.1,34.6,77.6,28.3z M50,14.9c8.3,0,15.9,2.9,21.9,7.7c-4.6,5.5-10.7,9.5-17.2,12.3C50,26,45.6,19.6,42.5,15.7
	C44.9,15.2,47.4,14.9,50,14.9z M34.5,18.6c2.4,2.9,7.3,9.2,12.5,19.1c-10.6,3.2-21.3,3.9-27.7,3.9c-0.2,0-0.4,0-0.5,0h0
	c-1.1,0-2,0-2.8,0C18.5,31.4,25.4,23.1,34.5,18.6z M14.9,50c0-0.2,0-0.3,0-0.5c1,0,2.3,0.1,3.8,0.1h0c7.1,0,19.4-0.6,31.9-4.6
	c0.7,1.5,1.4,3,2,4.6c-8.3,2.8-14.9,7.2-19.8,11.7c-4.7,4.3-7.8,8.5-9.7,11.3C18,66.5,14.9,58.6,14.9,50z M50,85.1
	c-7.8,0-15-2.6-20.9-6.9c1.2-2,3.9-6,8.1-10c4.4-4.2,10.4-8.5,18.2-11c2.7,7.5,5.1,16.1,6.9,25.7C58.6,84.3,54.4,85.1,50,85.1z
	 M69.9,78.9c-1.8-8.7-4-16.6-6.5-23.6c2.3-0.3,4.7-0.5,7.2-0.5h0.1h0h0c4.2,0,8.8,0.5,13.8,1.7C82.7,65.7,77.4,73.7,69.9,78.9z"/>
</svg>
