<?xml version="1.0" encoding="utf-8"?>
<!-- Generator: Adobe Illustrator 18.0.0, SVG Export Plug-In . SVG Version: 6.00 Build 0)  -->
<!DOCTYPE svg PUBLIC "-//W3C//DTD SVG 1.1//EN" "http://www.w3.org/Graphics/SVG/1.1/DTD/svg11.dtd">
<svg version="1.1" id="Layer_1" xmlns="http://www.w3.org/2000/svg" xmlns:xlink="http://www.w3.org/1999/xlink" x="0px" y="0px"
	 viewBox="0 0 25 25" enable-background="new 0 0 25 25" xml:space="preserve">
<rect x="0.1" fill="#2C3E51" width="24.9" height="25"/>
<path fill="#FFFFFF" d="M19.6,23.8L1,5.3C0,4.2,0,2.4,1,1.4l0.2-0.2c1.1-1.1,2.8-1.1,3.9,0l18.6,18.6c1.1,1.1,1.1,2.8,0,3.9
	l-0.2,0.2C22.4,24.9,20.7,24.9,19.6,23.8z"/>
<path fill="#FFFFFF" d="M1.2,19.7L19.7,1.2c1.1-1.1,2.8-1.1,3.9,0l0.2,0.2c1.1,1.1,1.1,2.8,0,3.9L5.3,23.8c-1.1,1.1-2.8,1.1-3.9,0
	l-0.2-0.2C0.1,22.6,0.1,20.8,1.2,19.7z"/>
</svg>
